<svg xmlns="http://www.w3.org/2000/svg" viewBox="0 0 600 400" fill="none">
  <rect width="600" height="400" rx="12" fill="#0A0B10"/>
  <rect x="20" y="20" width="560" height="360" rx="10" fill="#13141F" stroke="#25293C" stroke-width="1.5"/>
  
  <!-- Neural graph preview -->
  <rect x="40" y="50" width="270" height="300" rx="8" fill="#151724"/>
  <circle cx="100" cy="120" r="14" fill="#F59E0B" fill-opacity="0.2" stroke="#F59E0B" stroke-width="2"/>
  <circle cx="100" cy="200" r="14" fill="#F59E0B" fill-opacity="0.2" stroke="#F59E0B" stroke-width="2"/>
  <circle cx="100" cy="280" r="14" fill="#F59E0B" fill-opacity="0.2" stroke="#F59E0B" stroke-width="2"/>

  <circle cx="180" cy="150" r="18" fill="#FFFFFF" fill-opacity="0.1" stroke="#FFFFFF" stroke-width="2"/>
  <circle cx="180" cy="250" r="18" fill="#FFFFFF" fill-opacity="0.1" stroke="#FFFFFF" stroke-width="2"/>

  <circle cx="260" cy="200" r="16" fill="#F59E0B" stroke="#FBBF24" stroke-width="2.5"/>

  <path d="M114 120 L162 150 M114 200 L162 150 M114 200 L162 250 M114 280 L162 250" stroke="#374151" stroke-width="1.5"/>
  <path d="M198 150 L244 200 M198 250 L244 200" stroke="#F59E0B" stroke-width="2"/>

  <text x="175" y="325" text-anchor="middle" fill="#9CA3AF" font-family="monospace" font-size="11">NEURAL LOGIC ENGINE</text>

  <text x="340" y="95" fill="#F59E0B" font-family="sans-serif" font-size="12" font-weight="700" letter-spacing="1.5">AI DEVELOPMENT &amp; SOLUTIONS</text>
  <text x="340" y="130" fill="#FFFFFF" font-family="sans-serif" font-size="22" font-weight="700">Cognitive Vision AI</text>
  <text x="340" y="165" fill="#9CA3AF" font-family="sans-serif" font-size="13">Computer vision model and pipeline built for automated quality inspection and data extraction.</text>

  <rect x="340" y="215" width="220" height="50" rx="8" fill="#181B2A"/>
  <text x="355" y="238" fill="#9CA3AF" font-family="sans-serif" font-size="10">Accuracy Rate</text>
  <text x="355" y="255" fill="#FFFFFF" font-family="sans-serif" font-size="13" font-weight="600">99.4% Automated Precision</text>

  <rect x="340" y="280" width="220" height="50" rx="8" fill="#181B2A"/>
  <text x="355" y="303" fill="#9CA3AF" font-family="sans-serif" font-size="10">Processing Speed</text>
  <text x="355" y="320" fill="#F59E0B" font-family="sans-serif" font-size="13" font-weight="600">Sub-50ms Inference Latency</text>
</svg>
